{"title":"Star Crossed S01E02 HDTV x264 AAC [GWC].mp4","uid":9662954,"size":205676551,"categoryP":"video","categoryS":"tv_shows","magnet":"?xt=urn:btih:beec6f6c5b0c4e4298e956ca8f9bc9b3245d400a&amp;dn=Star+Crossed+S01E02+HDTV+x264+AAC+%5BGWC%5D.mp4&amp;tr=udp%3A%2F%2Ftracker.openbittorrent.com%3A80&amp;tr=udp%3A%2F%2Fopen.demonii.com%3A1337&amp;tr=udp%3A%2F%2Ftracker.coppersurfer.tk%3A6969&amp;tr=udp%3A%2F%2Fexodus.desync.com%3A6969","seeders":1,"leechers":1,"uploader":"canc232","files":1,"time":1393325582,"description":"Star Crossed S01E02 HDTV x264 AAC [GWC] \n\nSTORYLINE :\nAbout an epic romance between a human girl and an alien boy when he and eight others of his kind are integrated into a suburban high school 10 years after they landed on Earth and were consigned to an internment camp.\n\n\nSCREENS : &lt;a href=&quot;\nhttp://i.imgur.com/8BnTQrD.jpg&quot; rel=&quot;nofollow&quot; target=&quot;_NEW&quot;&gt;\nhttp://i.imgur.com/8BnTQrD.jpg&lt;/a&gt; &lt;a href=&quot;\nhttp://i.imgur.com/KJZnf06.jpg&quot; rel=&quot;nofollow&quot; target=&quot;_NEW&quot;&gt;\nhttp://i.imgur.com/KJZnf06.jpg&lt;/a&gt; &lt;a href=&quot;\nhttp://i.imgur.com/WaJAmHs.jpg&quot; rel=&quot;nofollow&quot; target=&quot;_NEW&quot;&gt;\nhttp://i.imgur.com/WaJAmHs.jpg&lt;/a&gt;\n\n\n\nMEDIA INFO :\nGeneral \nFormat : MPEG-4 \nFormat profile : Base Media \nFile size : 196 MiB \nDuration : 42mn 23s \nOverall bit rate : 647 Kbps \n\nVideo \nFormat : AVC \nFormat profile : &lt;a class=&quot;__cf_email__&quot; href=&quot;/cdn-cgi/l/email-protection&quot; data-cfemail=&quot;b2fadbd5daf2fe819c82&quot;&gt;[email&amp;#160;protected]&lt;/a&gt;&lt;script cf-hash='f9e31' type=&quot;text/javascript&quot;&gt;\n/* &lt;![CDATA[ */!function(){try{var t=&quot;currentScript&quot;in document?document.currentScript:function(){for(var t=document.getElementsByTagName(&quot;script&quot;),e=t.length;e--;)if(t[e].getAttribute(&quot;cf-hash&quot;))return t[e]}();if(t&amp;&amp;t.previousSibling){var e,r,n,i,c=t.previousSibling,a=c.getAttribute(&quot;data-cfemail&quot;);if(a){for(e=&quot;&quot;,r=parseInt(a.substr(0,2),16),n=2;a.length-n;n+=2)i=parseInt(a.substr(n,2),16)^r,e+=String.fromCharCode(i);e=document.createTextNode(e),c.parentNode.replaceChild(e,c)}}}catch(u){}}();/* ]]&gt; */&lt;/script&gt; \nFormat settings, CABAC : Yes \nFormat settings, ReFrames : 4 frames \nBit rate : 584 Kbps \nMaximum bit rate : 2 202 Kbps \nWidth : 720 pixels \nHeight : 404 pixels \nDisplay aspect ratio : 16:9 \nFrame rate mode : Constant \nFrame rate : 23.976 fps \nStream size : 177 MiB (90%) \nTitle : Star Crossed S01E02 HDTV x264 AAC [GWC] \nWriting library : x264\n\nAudio \nFormat : AAC \nFormat profile : HE-AAC / LC \nBit rate mode : Variable \nChannel(s) : 2 channels \nSampling rate : 48.0 KHz / 24.0 KHz \nStream size : 18.2 MiB (9%) \nLanguage : English ","torrent":{"xt":"urn:btih:beec6f6c5b0c4e4298e956ca8f9bc9b3245d400a","amp;dn":"Star+Crossed+S01E02+HDTV+x264+AAC+%5BGWC%5D.mp4","amp;tr":["udp%3A%2F%2Ftracker.openbittorrent.com%3A80","udp%3A%2F%2Fopen.demonii.com%3A1337","udp%3A%2F%2Ftracker.coppersurfer.tk%3A6969","udp%3A%2F%2Fexodus.desync.com%3A6969"],"infoHash":"beec6f6c5b0c4e4298e956ca8f9bc9b3245d400a","infoHashBuffer":{"type":"Buffer","data":[190,236,111,108,91,12,78,66,152,233,86,202,143,155,201,179,36,93,64,10]},"announce":[],"urlList":[]}}